<svg width="71" height="68" viewBox="0 0 71 68" fill="none" xmlns="http://www.w3.org/2000/svg">
<path d="M28.7447 32.1934L30.4923 30.0004L24.8664 25.481L30.4923 20.9616L28.7447 18.7686L21.7543 24.3845C21.5905 24.516 21.4583 24.6829 21.3674 24.8727C21.2766 25.0625 21.2294 25.2704 21.2294 25.481C21.2294 25.6916 21.2766 25.8995 21.3674 26.0893C21.4583 26.2791 21.5905 26.446 21.7543 26.5775L28.7447 32.1934ZM41.6768 18.7686L39.9292 20.9616L45.5551 25.481L39.9292 30.0004L41.6768 32.1934L48.6672 26.5775C48.831 26.446 48.9632 26.2791 49.0541 26.0893C49.1449 25.8995 49.1921 25.6916 49.1921 25.481C49.1921 25.2704 49.1449 25.0625 49.0541 24.8727C48.9632 24.6829 48.831 24.516 48.6672 24.3845L41.6768 18.7686ZM39.3714 13.1485L33.7791 38.42L31.0487 37.8107L36.641 12.5392L39.3714 13.1485Z" fill="black"/>
<path d="M6.26011 0.5H64.6423C67.864 0.5 70.5 3.03936 70.5 6.26239V43.5714C70.5 46.7945 67.864 49.5292 64.6423 49.5292H41.8947V59.1983H58.4916C60.9324 59.1983 61.1276 67.207 61.4205 67.5H9.5795C9.5795 67.5 9.5795 59.1983 12.5084 59.1983H29.1053V49.5292H6.26011C3.03835 49.5292 0.5 46.7945 0.5 43.5714V6.26239C0.5 3.03936 3.03835 0.5 6.26011 0.5ZM6.26011 43.5714H64.6423V6.26239H6.26011V43.5714Z" fill="black"/>
</svg>
