<svg width="67" height="67" viewBox="0 0 67 67" fill="none" xmlns="http://www.w3.org/2000/svg">
<path d="M45.9 18.75C45.9 19.5576 45.7409 20.3573 45.4319 21.1035C45.1228 21.8496 44.6698 22.5276 44.0987 23.0987C43.5276 23.6698 42.8496 24.1228 42.1035 24.4318C41.3573 24.7409 40.5576 24.9 39.75 24.9C38.9424 24.9 38.1426 24.7409 37.3965 24.4318C36.6503 24.1228 35.9724 23.6698 35.4013 23.0987C34.8302 22.5276 34.3772 21.8496 34.0681 21.1035C33.7591 20.3573 33.6 19.5576 33.6 18.75C33.6 17.1189 34.2479 15.5546 35.4013 14.4013C36.5546 13.2479 38.1189 12.6 39.75 12.6C41.3811 12.6 42.9454 13.2479 44.0987 14.4013C45.252 15.5546 45.9 17.1189 45.9 18.75ZM41.8 18.75C41.8 18.2063 41.584 17.6849 41.1996 17.3004C40.8151 16.916 40.2937 16.7 39.75 16.7C39.2063 16.7 38.6849 16.916 38.3004 17.3004C37.916 17.6849 37.7 18.2063 37.7 18.75C37.7 19.2937 37.916 19.8151 38.3004 20.1996C38.6849 20.584 39.2063 20.8 39.75 20.8C40.2937 20.8 40.8151 20.584 41.1996 20.1996C41.584 19.8151 41.8 19.2937 41.8 18.75ZM0.799988 12.6C0.799988 9.33782 2.09588 6.20927 4.40258 3.90257C6.70927 1.59588 9.83783 0.299988 13.1 0.299988H45.9C49.1622 0.299988 52.2907 1.59588 54.5974 3.90257C56.9041 6.20927 58.2 9.33782 58.2 12.6V24.9123C56.8019 24.9779 55.412 25.2895 54.1 25.8512V12.6C54.1 10.4252 53.2361 8.33951 51.6983 6.80171C50.1605 5.26391 48.0748 4.39999 45.9 4.39999H13.1C10.9252 4.39999 8.83951 5.26391 7.30171 6.80171C5.76391 8.33951 4.89999 10.4252 4.89999 12.6V48.7866C4.90065 48.9478 4.94882 49.1052 5.03845 49.2392C5.12809 49.3731 5.25522 49.4777 5.40396 49.5399C5.55271 49.602 5.71646 49.6189 5.87476 49.5885C6.03305 49.558 6.17887 49.4816 6.29399 49.3688L9.60269 46.1052L9.59449 46.0929L13.8913 41.8699L14.7359 41.0417L25.1909 30.7712C26.3409 29.6419 27.8882 29.0091 29.5 29.0091C31.1118 29.0091 32.6591 29.6419 33.8091 30.7712L40.9636 37.7986L38.0649 40.7014L30.935 33.6945C30.5518 33.3189 30.0366 33.1085 29.5 33.1085C28.9634 33.1085 28.4482 33.3189 28.065 33.6945L16.7654 44.7932L9.17629 52.288C6.06849 55.3548 0.799988 53.149 0.799988 48.7866V12.6ZM2.43999 57.8435C3.95289 58.5979 5.84299 59.217 7.42969 58.8685C8.45879 58.6389 9.79539 58.0772 11.296 57.4458C14.9245 55.9165 19.5083 53.9895 23.0302 55.4081C25.6419 56.4577 25.4246 59.4302 24.6907 60.8611C24.5472 61.1317 24.6579 61.5171 24.9572 61.5868C26.4567 61.8916 27.9876 62.0127 29.5164 61.9476C29.533 61.7541 29.5645 61.5622 29.6107 61.3736L31.1482 55.2318C31.5418 53.6492 32.3618 52.1978 33.518 51.0498L53.321 31.2468C54.031 30.5259 54.8768 29.9527 55.8094 29.5603C56.742 29.1678 57.7431 28.9638 58.7549 28.9601C59.7668 28.9564 60.7693 29.153 61.7048 29.5386C62.6403 29.9241 63.4903 30.4911 64.2056 31.2067C64.9209 31.9223 65.4876 32.7724 65.8728 33.7081C66.258 34.6437 66.4542 35.6464 66.4501 36.6582C66.446 37.67 66.2417 38.671 65.8488 39.6035C65.456 40.536 64.8825 41.3815 64.1614 42.0913L44.3584 61.8902C43.2048 63.0443 41.7593 63.8634 40.1764 64.26L35.1662 65.5105C30.5701 66.8553 23.7108 66.4207 21.5829 64.7602C19.742 63.3252 19.6682 61.1235 20.2873 59.6598C20.4267 59.3318 20.1807 58.9095 19.8322 58.9628C17.8027 59.2498 16.1422 59.9878 14.5022 60.7135C12.1037 61.7795 9.76259 62.8168 6.40059 62.3986C3.48549 62.0378 1.86189 60.5167 0.968087 59.0161C0.467887 58.1797 1.57079 57.4089 2.44409 57.8435H2.43999Z" fill="black"/>
</svg>
