<svg width="159" height="159" viewBox="0 0 159 159" fill="none" xmlns="http://www.w3.org/2000/svg">
<path d="M152.453 0.203125H6.54688C3.03799 0.203125 0.203125 3.03799 0.203125 6.54688V152.453C0.203125 155.962 3.03799 158.797 6.54688 158.797H152.453C155.962 158.797 158.797 155.962 158.797 152.453V6.54688C158.797 3.03799 155.962 0.203125 152.453 0.203125ZM134.136 46.4927H121.468C111.536 46.4927 109.613 51.2108 109.613 58.1493V73.4338H133.323L130.23 97.3616H109.613V158.797H84.8922V97.3814H64.2155V73.4338H84.8922V55.7902C84.8922 35.3118 97.4013 24.1508 115.679 24.1508C124.442 24.1508 131.955 24.805 134.155 25.1023V46.4927H134.136Z" fill="#4267B2"/>
</svg>
