<svg width="49" height="49" viewBox="0 0 49 49" fill="none" xmlns="http://www.w3.org/2000/svg">
<path d="M40.5638 5.35938H8.43623C6.7375 5.35938 5.35938 6.7375 5.35938 8.43623V40.5638C5.35938 42.2625 6.7375 43.6406 8.43623 43.6406H40.5638C42.2625 43.6406 43.6406 42.2625 43.6406 40.5638V8.43623C43.6406 6.7375 42.2625 5.35938 40.5638 5.35938ZM40.5638 40.5781C19.1358 40.5733 8.42188 40.5686 8.42188 40.5638C8.42666 19.1358 8.43145 8.42188 8.43623 8.42188C29.8642 8.42666 40.5781 8.43145 40.5781 8.43623C40.5733 29.8642 40.5686 40.5781 40.5638 40.5781ZM11.0346 19.7101H16.7146V37.9798H11.0346V19.7101ZM13.877 17.2122C15.6905 17.2122 17.1691 15.7384 17.1691 13.92C17.1691 13.4877 17.084 13.0596 16.9185 12.6602C16.7531 12.2607 16.5106 11.8978 16.2049 11.5921C15.8992 11.2864 15.5362 11.0439 15.1368 10.8784C14.7374 10.713 14.3093 10.6278 13.877 10.6278C13.4446 10.6278 13.0165 10.713 12.6171 10.8784C12.2177 11.0439 11.8547 11.2864 11.549 11.5921C11.2433 11.8978 11.0008 12.2607 10.8354 12.6602C10.6699 13.0596 10.5848 13.4877 10.5848 13.92C10.58 15.7384 12.0538 17.2122 13.877 17.2122ZM25.9499 28.9406C25.9499 26.5576 26.4045 24.2512 29.3569 24.2512C32.2663 24.2512 32.3094 26.9739 32.3094 29.0938V37.9798H37.9846V27.9597C37.9846 23.0405 36.9223 19.2555 31.1753 19.2555C28.4143 19.2555 26.5624 20.7724 25.8016 22.2079H25.725V19.7101H20.2747V37.9798H25.9499V28.9406Z" fill="#0185FF"/>
</svg>
