<svg width="183" height="183" viewBox="0 0 183 183" fill="none" xmlns="http://www.w3.org/2000/svg">
<path d="M176.076 106.654C177.009 101.534 177.51 96.3011 177.51 91.0677C177.51 79.4632 175.235 68.2 170.752 57.6194C166.429 47.3802 160.217 38.1876 152.321 30.292C144.492 22.4424 135.21 16.1904 124.994 11.8841C114.391 7.40156 103.15 5.12617 91.5457 5.12617C86.0847 5.12617 80.601 5.64951 75.2766 6.67344C67.9092 2.76939 59.7001 0.722977 51.3623 0.711914C37.7782 0.711914 24.9905 6.01357 15.3883 15.6157C10.6501 20.3296 6.89332 25.936 4.33517 32.1107C1.77701 38.2854 0.468243 44.906 0.484525 51.5896C0.484525 60.2361 2.71441 68.7461 6.87837 76.2549C6.03648 81.1242 5.5814 86.1073 5.5814 91.0677C5.5814 102.672 7.85679 113.935 12.3393 124.516C16.6626 134.755 22.8516 143.948 30.7472 151.843C38.6428 159.739 47.8354 165.928 58.0747 170.251C68.678 174.734 79.9184 177.009 91.5229 177.009C96.5743 177.009 101.626 176.554 106.586 175.667C114.209 179.967 122.81 182.265 131.615 182.265C145.199 182.265 157.987 176.986 167.589 167.362C177.214 157.759 182.493 144.972 182.493 131.388C182.516 122.741 180.286 114.208 176.076 106.654ZM91.887 143.72C61.3512 143.72 47.6989 128.703 47.6989 117.462C47.6989 111.683 51.9539 107.655 57.8244 107.655C70.8851 107.655 67.5175 126.427 91.887 126.427C104.379 126.427 111.273 119.647 111.273 112.707C111.273 108.543 109.225 103.901 100.989 101.876L73.8204 95.0951C51.9539 89.6114 47.9719 77.7794 47.9719 66.6755C47.9719 43.603 69.7019 34.9338 90.1122 34.9338C108.907 34.9338 131.069 45.3323 131.069 59.1667C131.069 65.1055 125.927 68.5413 120.056 68.5413C108.907 68.5413 110.955 53.1142 88.4966 53.1142C77.3472 53.1142 71.1809 58.1655 71.1809 65.3785C71.1809 72.5915 79.9867 74.8897 87.632 76.6417L107.746 81.1015C129.772 86.0163 135.347 98.8723 135.347 110.977C135.347 129.704 120.944 143.72 91.887 143.72V143.72Z" fill="#00AFF0"/>
</svg>
