<svg width="169" height="169" viewBox="0 0 169 169" fill="none" xmlns="http://www.w3.org/2000/svg">
<path d="M161.766 0.515625H7.23438C3.51807 0.515625 0.515625 3.51807 0.515625 7.23438V161.766C0.515625 165.482 3.51807 168.484 7.23438 168.484H161.766C165.482 168.484 168.484 165.482 168.484 161.766V7.23438C168.484 3.51807 165.482 0.515625 161.766 0.515625ZM129.705 61.3413C129.768 62.3281 129.768 63.3569 129.768 64.3647C129.768 95.187 106.294 130.691 63.3989 130.691C50.1714 130.691 37.9097 126.849 27.5796 120.235C29.4692 120.445 31.2749 120.529 33.2065 120.529C44.1245 120.529 54.1606 116.834 62.1602 110.577C51.9141 110.367 43.3057 103.648 40.3662 94.4102C43.9565 94.9351 47.1899 94.9351 50.8853 93.9902C45.6095 92.9184 40.8675 90.0531 37.4649 85.8812C34.0623 81.7093 32.2089 76.488 32.2197 71.1045V70.8105C35.3062 72.5532 38.9385 73.624 42.7388 73.771C39.5441 71.6419 36.9241 68.7573 35.1111 65.3732C33.2982 61.989 32.3483 58.2098 32.3457 54.3706C32.3457 50.0244 33.4795 46.0562 35.5161 42.6128C41.372 49.8215 48.6792 55.7173 56.9629 59.9171C65.2466 64.1168 74.3213 66.5264 83.5972 66.9893C80.3008 51.1372 92.1426 38.3086 106.378 38.3086C113.097 38.3086 119.144 41.1221 123.406 45.6572C128.676 44.6704 133.715 42.6968 138.208 40.0513C136.465 45.4473 132.812 50.0034 127.962 52.8799C132.665 52.376 137.2 51.0742 141.399 49.2476C138.229 53.9087 134.261 58.0449 129.705 61.3413Z" fill="#00ACEE"/>
</svg>
