<svg width="159" height="159" viewBox="0 0 159 159" fill="none" xmlns="http://www.w3.org/2000/svg">
<path d="M79.5136 32.0001C67.4479 32.0126 55.8798 36.9671 47.3472 45.7766C38.8147 54.586 34.0145 66.5309 34 78.9906C33.9909 87.8621 36.4037 96.5071 40.955 103.991L42.0334 105.765L37.4364 123.103L54.6639 118.44L56.3181 119.46C63.3326 123.747 71.3351 126.006 79.4862 126H79.4953C91.5571 125.983 103.12 121.027 111.65 112.221C120.18 103.414 124.98 91.4746 125 79.0189C125.021 72.845 123.855 66.7281 121.571 61.0224C119.287 55.3168 115.929 50.1357 111.693 45.7792C107.478 41.3987 102.464 37.9252 96.9403 35.56C91.4166 33.1947 85.4933 31.9848 79.5136 32.0001ZM106.273 99.1779C105.131 102.481 99.6657 105.482 97.0427 105.888C94.1672 106.4 91.2156 106.209 88.4244 105.331C85.7763 104.485 83.174 103.492 80.6286 102.358C66.9014 96.2428 57.9449 81.9824 57.2503 81.0292C56.574 80.0854 51.6754 73.3657 51.6754 66.4196C51.6754 59.4639 55.2031 56.0475 56.4552 54.6318C56.9149 54.0954 57.4769 53.6627 58.1059 53.3606C58.7349 53.0586 59.4174 52.8937 60.1109 52.8764C61.0248 52.8764 61.9296 52.8859 62.7339 52.9236C63.5747 52.9614 64.6988 52.5933 65.8047 55.3491C66.9471 58.1804 69.6889 65.1266 70.027 65.8344C70.3652 66.5328 70.5937 67.3633 70.1458 68.3071C69.6889 69.2603 69.4695 69.836 68.7749 70.6665C68.0986 71.4971 67.3401 72.5069 66.7277 73.1487C66.0423 73.8471 65.3294 74.6115 66.1246 76.0272C66.9288 77.4334 69.6706 82.0673 73.7284 85.8141C78.9561 90.6273 83.3704 92.1091 84.7321 92.8263C86.103 93.5247 86.8981 93.4209 87.7024 92.4677C88.4975 91.5145 91.1205 88.3434 92.0344 86.9372C92.9483 85.5215 93.8531 85.7575 95.1143 86.2199C96.3664 86.7013 103.093 90.1083 104.455 90.8161C105.807 91.5145 106.73 91.8731 107.078 92.4677C107.407 93.0528 107.407 95.8747 106.273 99.1779Z" fill="#4FCE5D"/>
<path d="M150.167 0H8.83333C6.49059 0 4.24379 0.930652 2.58722 2.58722C0.930652 4.24379 0 6.49059 0 8.83333V150.167C0 152.509 0.930652 154.756 2.58722 156.413C4.24379 158.069 6.49059 159 8.83333 159H150.167C152.509 159 154.756 158.069 156.413 156.413C158.069 154.756 159 152.509 159 150.167V8.83333C159 6.49059 158.069 4.24379 156.413 2.58722C154.756 0.930652 152.509 0 150.167 0ZM79.8533 131.581H79.8357C71.0028 131.582 62.3107 129.368 54.5547 125.142L26.5 132.5L34.0083 105.081C29.3707 97.0361 26.9316 87.9122 26.9362 78.6261C26.9407 69.3399 29.3887 60.2184 34.0343 52.1777C38.6798 44.1371 45.3594 37.4604 53.402 32.8183C61.4446 28.1762 70.5672 25.7321 79.8533 25.7315C86.8099 25.7123 93.701 27.0742 100.127 29.7384C106.553 32.4026 112.387 36.316 117.289 41.2517C122.214 46.1573 126.117 51.9912 128.772 58.4156C131.427 64.8399 132.781 71.7272 132.756 78.6785C132.735 92.7027 127.155 106.147 117.238 116.063C107.321 125.98 93.8776 131.56 79.8533 131.581Z" fill="#4FCE5D"/>
</svg>
